<svg width="128" height="128" viewBox="0 0 128 128" fill="none" xmlns="http://www.w3.org/2000/svg">
<rect width="128" height="128" rx="48" fill="#1C93FF"/>
<rect width="128" height="128" rx="48" fill="url(#paint0_linear_456_79103)"/>
<path d="M55.4121 52.3389C55.4121 43.52 64.9417 36.3711 76.7026 36.3711C88.4634 36.3711 98.0001 43.52 98.0001 52.3389C98.0001 61.1578 88.4634 68.3067 76.7026 68.3067C75.5513 68.3067 73.3129 68.1006 73.3129 68.1006C73.3129 68.1006 70.2643 72.1939 64.1671 71.469C64.1671 71.469 66.6045 69.1879 66.967 66.5302C60.1023 63.8795 55.405 58.5143 55.405 52.3247L55.4121 52.3389Z" fill="white" fill-opacity="0.8"/>
<path d="M56.155 52.3406L56.1621 52.3389C56.1621 48.2184 58.3867 44.4309 62.097 41.6479C65.8077 38.8647 70.9687 37.1211 76.7026 37.1211C82.4365 37.1211 87.5993 38.8647 91.3118 41.648C95.024 44.4311 97.2501 48.2186 97.2501 52.3389C97.2501 56.4592 95.024 60.2467 91.3118 63.0298C87.5993 65.8131 82.4365 67.5567 76.7026 67.5567C76.1574 67.5567 75.3346 67.5072 74.6308 67.4557C74.2826 67.4302 73.9697 67.4047 73.744 67.3855C73.6311 67.376 73.5402 67.368 73.4776 67.3624L73.4059 67.356L73.3875 67.3543L73.383 67.3539L73.3819 67.3538L73.3816 67.3538L73.3816 67.3538L72.9627 67.3152L72.7128 67.6507L72.7126 67.6509L72.7121 67.6516L72.7118 67.6521L72.7114 67.6526L72.71 67.6544C72.7066 67.6588 72.7004 67.6668 72.6912 67.6782C72.673 67.7011 72.6432 67.7375 72.6019 67.7854C72.5193 67.8812 72.3909 68.0225 72.217 68.1925C71.8688 68.5329 71.341 68.9849 70.635 69.4169C69.4891 70.118 67.8686 70.7706 65.7617 70.8037C65.852 70.6882 65.9446 70.5656 66.0382 70.4366C66.723 69.4926 67.5045 68.1387 67.7101 66.6315L67.7902 66.0441L67.2371 65.8305C60.5567 63.251 56.1631 58.1097 56.155 52.3406Z" stroke="white" stroke-opacity="0.08" stroke-width="1.5"/>
<g filter="url(#filter0_bd_456_79103)">
<path d="M61.6656 58.4929C64.9558 56.4392 67.1516 52.8008 67.1516 48.6365C67.1516 42.2195 61.9498 37.0177 55.5258 37.0177C49.1017 37.0177 43.907 42.2195 43.907 48.6365C43.907 53.0139 46.3231 56.8158 49.8976 58.7985C38.7336 61.6267 30 71.3126 30 83.4928C30 92.5462 38.2646 91.601 48.4692 91.601H62.5823C72.7798 91.601 81.0515 92.5462 81.0515 83.4928C81.0515 71.3695 72.8864 60.9161 61.6656 58.4858V58.4929Z" fill="white" fill-opacity="0.4" shape-rendering="crispEdges"/>
<path d="M60.9156 58.4929V59.8451L61.8102 59.2867C72.5077 61.7589 80.3015 71.809 80.3015 83.4928C80.3015 85.6433 79.8114 87.1003 79.011 88.1145C78.2091 89.1305 77.0225 89.7954 75.4469 90.2175C73.8639 90.6415 71.9461 90.805 69.7523 90.8575C68.3337 90.8914 66.8343 90.8789 65.2572 90.8657C64.389 90.8585 63.4972 90.851 62.5823 90.851H48.4692C47.5536 90.851 46.6612 90.8585 45.7925 90.8657C44.2147 90.8789 42.715 90.8914 41.2963 90.8575C39.1021 90.805 37.1845 90.6415 35.602 90.2175C34.0269 89.7955 32.841 89.1306 32.0397 88.1146C31.2398 87.1005 30.75 85.6435 30.75 83.4928C30.75 71.6969 39.2091 62.28 50.0818 59.5255L51.9165 59.0607L50.2614 58.1426C46.9153 56.2866 44.657 52.7302 44.657 48.6365C44.657 42.6334 49.5162 37.7677 55.5258 37.7677C61.5359 37.7677 66.4016 42.634 66.4016 48.6365C66.4016 52.4186 64.4652 55.739 61.5291 57.6888L60.9156 57.5559V58.4858V58.4929Z" stroke="white" stroke-opacity="0.08" stroke-width="1.5" shape-rendering="crispEdges"/>
</g>
<path d="M85.3997 52.3034C85.3997 53.9378 84.078 55.2596 82.4435 55.2596C80.8091 55.2596 79.4873 53.9378 79.4873 52.3034C79.4873 50.6689 80.8091 49.3472 82.4435 49.3472C84.078 49.3472 85.3997 50.6689 85.3997 52.3034Z" fill="white"/>
<path d="M75.7139 52.3034C75.7139 53.9378 74.3922 55.2596 72.7577 55.2596C71.1233 55.2596 69.8015 53.9378 69.8015 52.3034C69.8015 50.6689 71.1233 49.3472 72.7577 49.3472C74.3922 49.3472 75.7139 50.6689 75.7139 52.3034Z" fill="white"/>
<defs>
<filter id="filter0_bd_456_79103" x="18" y="25.0177" width="75.0515" height="78.6116" filterUnits="userSpaceOnUse" color-interpolation-filters="sRGB">
<feFlood flood-opacity="0" result="BackgroundImageFix"/>
<feGaussianBlur in="BackgroundImageFix" stdDeviation="6"/>
<feComposite in2="SourceAlpha" operator="in" result="effect1_backgroundBlur_456_79103"/>
<feColorMatrix in="SourceAlpha" type="matrix" values="0 0 0 0 0 0 0 0 0 0 0 0 0 0 0 0 0 0 127 0" result="hardAlpha"/>
<feOffset/>
<feGaussianBlur stdDeviation="2"/>
<feComposite in2="hardAlpha" operator="out"/>
<feColorMatrix type="matrix" values="0 0 0 0 0.172549 0 0 0 0 0.635294 0 0 0 0 0.976471 0 0 0 0.4 0"/>
<feBlend mode="normal" in2="effect1_backgroundBlur_456_79103" result="effect2_dropShadow_456_79103"/>
<feBlend mode="normal" in="SourceGraphic" in2="effect2_dropShadow_456_79103" result="shape"/>
</filter>
<linearGradient id="paint0_linear_456_79103" x1="0" y1="0" x2="128" y2="128" gradientUnits="userSpaceOnUse">
<stop stop-color="#10CFC9"/>
<stop offset="0.328947" stop-color="#4DC4EA"/>
<stop offset="0.656217" stop-color="#1C93FF"/>
<stop offset="1" stop-color="#8E75FF"/>
</linearGradient>
</defs>
</svg>
