<svg width="128" height="128" viewBox="0 0 128 128" fill="none" xmlns="http://www.w3.org/2000/svg">
<rect width="128" height="128" rx="48" fill="#1C93FF"/>
<rect width="128" height="128" rx="48" fill="url(#paint0_linear_456_79087)"/>
<path d="M58.4896 76.4344H70.5711C73.2658 76.4344 75.4496 78.6183 75.4496 81.313V91.1218C75.4496 93.8165 73.2658 96.0003 70.5711 96.0003H58.4896C55.7949 96.0003 53.6111 93.8165 53.6111 91.1218V81.3204C53.6111 78.6257 55.7949 76.4419 58.4896 76.4419V76.4344Z" fill="white" fill-opacity="0.8"/>
<path d="M59.2396 77.1919V77.1844H70.5711C72.8516 77.1844 74.6996 79.0325 74.6996 81.313V91.1218C74.6996 93.4023 72.8516 95.2503 70.5711 95.2503H58.4896C56.2092 95.2503 54.3611 93.4023 54.3611 91.1218V81.3204C54.3611 79.0399 56.2092 77.1919 58.4896 77.1919H59.2396Z" stroke="white" stroke-opacity="0.08" stroke-width="1.5"/>
<g filter="url(#filter0_bd_456_79087)">
<path d="M74.5838 83.9924C75.139 83.5112 75.4499 82.7561 75.5314 81.6457C75.7535 78.8326 74.8873 76.5007 76.9601 73.7986C79.5067 70.4747 81.0243 67.8319 83.1638 64.1971C85.4587 60.2883 86.4877 55.6097 86.0287 51.1013C85.3476 44.4313 80.8837 37.7761 74.9243 34.6817C68.0322 31.1061 60.5553 31.1061 53.6706 34.6817C47.7113 37.7761 43.2473 44.4387 42.5662 51.1013C42.1073 55.6023 43.1363 60.2883 45.4312 64.1971C47.5706 67.8393 49.0882 70.4821 51.6348 73.7986C53.0339 75.6198 52.9673 77.5001 52.9451 80.0245C52.9081 84.2071 55.0845 84.6587 59.0377 84.6587H72.2223C73.2661 84.6587 74.0508 84.4588 74.5912 83.9924H74.5838Z" fill="white" fill-opacity="0.4" shape-rendering="crispEdges"/>
<path d="M74.0133 83.4944L74.0926 83.4257C74.4392 83.1253 74.7096 82.5974 74.7834 81.5909L74.7837 81.5867C74.8358 80.9267 74.8246 80.2884 74.8071 79.6329C74.8055 79.5747 74.8039 79.5162 74.8023 79.4576C74.786 78.8666 74.769 78.2523 74.8029 77.6391C74.8795 76.2533 75.2165 74.8396 76.3648 73.3425C78.7355 70.2481 80.2003 67.7571 82.1566 64.4301C82.2749 64.2288 82.395 64.0245 82.5173 63.8169C84.7317 60.0449 85.7252 55.526 85.2826 51.1775L74.0133 83.4944ZM74.0133 83.4944C73.6645 83.749 73.1123 83.9087 72.2223 83.9087H59.0377C58.057 83.9087 57.2231 83.8802 56.5181 83.7802C55.8125 83.6801 55.2834 83.5144 54.888 83.2712C54.1778 82.8344 53.6776 82.0025 53.6951 80.0311L53.6951 80.0311C53.696 79.9219 53.6971 79.8133 53.6982 79.7053C53.722 77.3727 53.743 75.3117 52.2295 73.3417C49.8465 70.2381 48.3789 67.7376 46.4069 64.3777C46.2988 64.1936 46.1893 64.0069 46.0779 63.8173C43.8633 60.0453 42.8697 55.5189 43.3124 51.1776L74.0133 83.4944ZM54.0163 35.3473L54.0162 35.3473C48.2847 38.3234 43.9682 44.7623 43.3124 51.1774L54.0163 35.3473ZM54.0163 35.3473C60.6841 31.8843 67.9031 31.8841 74.5787 35.3473M54.0163 35.3473L74.5787 35.3473M74.5787 35.3473C80.3104 38.3235 84.6267 44.755 85.2825 51.1773L74.5787 35.3473Z" stroke="white" stroke-opacity="0.08" stroke-width="1.5" shape-rendering="crispEdges"/>
</g>
<defs>
<filter id="filter0_bd_456_79087" x="30.4592" y="20" width="67.6765" height="76.6587" filterUnits="userSpaceOnUse" color-interpolation-filters="sRGB">
<feFlood flood-opacity="0" result="BackgroundImageFix"/>
<feGaussianBlur in="BackgroundImageFix" stdDeviation="6"/>
<feComposite in2="SourceAlpha" operator="in" result="effect1_backgroundBlur_456_79087"/>
<feColorMatrix in="SourceAlpha" type="matrix" values="0 0 0 0 0 0 0 0 0 0 0 0 0 0 0 0 0 0 127 0" result="hardAlpha"/>
<feOffset/>
<feGaussianBlur stdDeviation="2"/>
<feComposite in2="hardAlpha" operator="out"/>
<feColorMatrix type="matrix" values="0 0 0 0 0.172549 0 0 0 0 0.635294 0 0 0 0 0.976471 0 0 0 0.4 0"/>
<feBlend mode="normal" in2="effect1_backgroundBlur_456_79087" result="effect2_dropShadow_456_79087"/>
<feBlend mode="normal" in="SourceGraphic" in2="effect2_dropShadow_456_79087" result="shape"/>
</filter>
<linearGradient id="paint0_linear_456_79087" x1="0" y1="0" x2="128" y2="128" gradientUnits="userSpaceOnUse">
<stop stop-color="#10CFC9"/>
<stop offset="0.328947" stop-color="#4DC4EA"/>
<stop offset="0.656217" stop-color="#1C93FF"/>
<stop offset="1" stop-color="#8E75FF"/>
</linearGradient>
</defs>
</svg>
