<svg width="16" height="16" viewBox="0 0 16 16" fill="none" xmlns="http://www.w3.org/2000/svg">
<g id="File">
<path id="Rectangle 2702 (Stroke)" fill-rule="evenodd" clip-rule="evenodd" d="M2.66602 2.66536C2.66602 1.92899 3.26297 1.33203 3.99935 1.33203H11.9993C12.7357 1.33203 13.3327 1.92898 13.3327 2.66536V9.9987C13.3327 10.1755 13.2624 10.3451 13.1374 10.4701L9.13742 14.4701C9.0124 14.5951 8.84283 14.6654 8.66602 14.6654H3.99935C3.26297 14.6654 2.66602 14.0684 2.66602 13.332V2.66536ZM11.9993 2.66536L3.99935 2.66536V13.332H7.99935V10.6654C7.99935 9.92899 8.5963 9.33203 9.33268 9.33203H11.9993V2.66536ZM11.0565 10.6654H9.33268V12.3892L11.0565 10.6654Z" fill="#292A2E"/>
</g>
</svg>
