<svg width="16" height="16" viewBox="0 0 16 16" fill="none" xmlns="http://www.w3.org/2000/svg">
<path fill-rule="evenodd" clip-rule="evenodd" d="M2 13.3307C2 12.9625 2.29848 12.6641 2.66667 12.6641H13.3333C13.7015 12.6641 14 12.9625 14 13.3307C14 13.6989 13.7015 13.9974 13.3333 13.9974H2.66667C2.29848 13.9974 2 13.6989 2 13.3307Z" fill="#292A2E"/>
<path fill-rule="evenodd" clip-rule="evenodd" d="M8.47206 9.80474C8.21171 10.0651 7.7896 10.0651 7.52925 9.80474L4.86258 7.13807C4.60223 6.87772 4.60223 6.45561 4.86258 6.19526C5.12293 5.93491 5.54504 5.93491 5.80539 6.19526L7.33398 7.72386L7.33398 2.66667C7.33398 2.29848 7.63246 2 8.00065 2C8.36884 2 8.66732 2.29848 8.66732 2.66667L8.66732 7.72386L10.1959 6.19526C10.4563 5.93491 10.8784 5.93491 11.1387 6.19526C11.3991 6.45561 11.3991 6.87772 11.1387 7.13807L8.47206 9.80474Z" fill="#292A2E"/>
</svg>
