<svg width="20" height="20" viewBox="0 0 20 20" fill="none" xmlns="http://www.w3.org/2000/svg">
<path fill-rule="evenodd" clip-rule="evenodd" d="M3.38426 9.16663H5.85208C5.93804 7.32994 6.306 5.65155 6.88082 4.35821C6.93104 4.24522 6.98321 4.13431 7.03736 4.02579C5.07839 4.99891 3.66601 6.90721 3.38426 9.16663ZM9.99935 1.66663C5.39698 1.66663 1.66602 5.39759 1.66602 9.99996C1.66602 14.6023 5.39698 18.3333 9.99935 18.3333C14.6017 18.3333 18.3327 14.6023 18.3327 9.99996C18.3327 5.39759 14.6017 1.66663 9.99935 1.66663ZM9.99935 3.33329C9.81026 3.33329 9.56739 3.41604 9.27635 3.69301C8.98103 3.97406 8.67716 4.42014 8.40384 5.03511C7.93595 6.08784 7.60548 7.52785 7.52074 9.16663H12.478C12.3932 7.52785 12.0627 6.08784 11.5949 5.03511C11.3215 4.42014 11.0177 3.97406 10.7223 3.69301C10.4313 3.41604 10.1884 3.33329 9.99935 3.33329ZM14.1466 9.16663C14.0607 7.32994 13.6927 5.65155 13.1179 4.35821C13.0677 4.24522 13.0155 4.13431 12.9613 4.02579C14.9203 4.99891 16.3327 6.90721 16.6144 9.16663H14.1466ZM12.478 10.8333H7.52074C7.60548 12.4721 7.93595 13.9121 8.40384 14.9648C8.67716 15.5798 8.98103 16.0259 9.27635 16.3069C9.56739 16.5839 9.81026 16.6666 9.99935 16.6666C10.1884 16.6666 10.4313 16.5839 10.7223 16.3069C11.0177 16.0259 11.3215 15.5798 11.5949 14.9648C12.0627 13.9121 12.3932 12.4721 12.478 10.8333ZM12.9613 15.9741C13.0155 15.8656 13.0677 15.7547 13.1179 15.6417C13.6927 14.3484 14.0607 12.67 14.1466 10.8333H16.6144C16.3327 13.0927 14.9203 15.001 12.9613 15.9741ZM7.03736 15.9741C6.98321 15.8656 6.93104 15.7547 6.88082 15.6417C6.306 14.3484 5.93804 12.67 5.85208 10.8333H3.38426C3.66601 13.0927 5.07839 15.001 7.03736 15.9741Z" fill="#292A2E"/>
</svg>
